<svg viewBox="0 0 24 24" fill="none" xmlns="http://www.w3.org/2000/svg">
  <path fill-rule="evenodd" clip-rule="evenodd" d="M9.86354 4.76098C10.0306 4.59388 10.2573 4.5 10.4936 4.5H13.7756C14.012 4.5 14.2386 4.59388 14.4057 4.76098C14.5728 4.92808 14.6667 5.15471 14.6667 5.39103V6.28205H9.60256V5.39103C9.60256 5.15471 9.69644 4.92808 9.86354 4.76098ZM8.10256 6.28205V5.39103C8.10256 4.75689 8.35448 4.14872 8.80288 3.70032C9.25128 3.25191 9.85945 3 10.4936 3H13.7756C14.4098 3 15.0179 3.25191 15.4664 3.70032C15.9148 4.14872 16.1667 4.75689 16.1667 5.39103V6.28205L19.5192 6.28205C19.9334 6.28205 20.2692 6.61784 20.2692 7.03205C20.2692 7.44626 19.9334 7.78205 19.5192 7.78205H18.6282V18.5192C18.6282 19.1534 18.3763 19.7615 17.9279 20.2099C17.4795 20.6583 16.8713 20.9103 16.2372 20.9103H8.03205C7.39791 20.9103 6.78974 20.6583 6.34134 20.2099C5.89294 19.7615 5.64103 19.1534 5.64103 18.5192V7.78205H4.75C4.33579 7.78205 4 7.44626 4 7.03205C4 6.61784 4.33579 6.28205 4.75 6.28205H6.39103L8.10256 6.28205ZM7.14103 7.78205V18.5192C7.14103 18.7555 7.2349 18.9822 7.402 19.1493C7.5691 19.3164 7.79574 19.4103 8.03205 19.4103H16.2372C16.4735 19.4103 16.7001 19.3164 16.8672 19.1493C17.0343 18.9822 17.1282 18.7555 17.1282 18.5192V7.78205H15.4167H8.85256H7.14103Z" fill="#E4666E"/>
</svg>
